<?xml version="1.0" encoding="UTF-8" standalone="no"?>
<!-- Created with Inkscape (http://www.inkscape.org/) -->
<svg
   xmlns:svg="http://www.w3.org/2000/svg"
   xmlns="http://www.w3.org/2000/svg"
   version="1.0"
   width="800"
   height="400"
   id="svg2234">
  <defs
     id="defs2237" />
  <g
     transform="translate(0.3907916,-4.3260378e-2)"
     id="g2243">
    <path
       d="M 0,200 L 0,0 L 400,0 L 800,0 L 800,200 L 800,400 L 400,400 L 0,400 L 0,200 z "
       style="fill:#f8f9f8"
       id="path2249" />
    <path
       d="M 0,0 L 800,0 L 800,400 L 0,400 L 0,0 z M 422.02204,351.55997 C 472.892,344.78676 516.36091,316.24376 541.66315,273 C 576.8808,212.80995 567.84575,136.53783 519.52641,86.126001 C 491.11611,56.485378 454.37607,39.201956 413.26782,36.139342 C 332.25232,30.10359 260.06253,82.333911 242.07462,160 C 234.88333,191.0497 237.49687,222.1593 249.91361,253.30941 C 256.84082,270.68782 267.58131,287.15643 281.61081,301.91137 C 317.81366,339.98619 370.0978,358.47356 422.02204,351.55997 z "
       style="fill:#009d49"
       id="path2247" />
    <path
       d="M 325.72966,287.23816 L 411.10921,198.55188 L 324.61783,110.04326 L 466.77927,110.04326 L 468.11319,128.29326 C 469.92118,153.02913 469.92255,154.54326 468.13689,154.54326 C 467.19107,154.54326 466.41152,153.06102 465.95696,150.39831 C 461.39217,127.5524 460.13138,122.87857 429.96048,119.03075 L 368.16147,117.79986 C 366.27387,119.32835 365.94808,120.26512 366.51648,122.52982 L 433.10921,191.90781 L 364.10921,263.27633 L 459.71063,259.34397 C 463.47653,255.28722 465.29591,251.30246 465.99418,245.58192 C 466.42613,242.04313 467.05572,240.54326 468.10921,240.54326 L 469.60921,287.54326 L 325.72966,287.23816 z "
       style="fill:#111111"
       id="path2245" />
  </g>
</svg>
