<?xml version="1.0" encoding="UTF-8" standalone="no"?>
<!-- Created with Inkscape (http://www.inkscape.org/) -->

<svg
   xmlns:dc="http://purl.org/dc/elements/1.1/"
   xmlns:cc="http://creativecommons.org/ns#"
   xmlns:rdf="http://www.w3.org/1999/02/22-rdf-syntax-ns#"
   xmlns:svg="http://www.w3.org/2000/svg"
   xmlns="http://www.w3.org/2000/svg"
   xmlns:sodipodi="http://sodipodi.sourceforge.net/DTD/sodipodi-0.dtd"
   xmlns:inkscape="http://www.inkscape.org/namespaces/inkscape"
   id="svg2"
   version="1.1"
   inkscape:version="0.47 r22583"
   width="800"
   height="400"
   sodipodi:docname="Flag_of_Oceania_(Proposal).png">
  <metadata
     id="metadata8">
    <rdf:RDF>
      <cc:Work
         rdf:about="">
        <dc:format>image/svg+xml</dc:format>
        <dc:type
           rdf:resource="http://purl.org/dc/dcmitype/StillImage" />
        <dc:title></dc:title>
      </cc:Work>
    </rdf:RDF>
  </metadata>
  <defs
     id="defs6" />
  <sodipodi:namedview
     pagecolor="#ffffff"
     bordercolor="#666666"
     borderopacity="1"
     objecttolerance="10"
     gridtolerance="10"
     guidetolerance="10"
     inkscape:pageopacity="0"
     inkscape:pageshadow="2"
     inkscape:window-width="1280"
     inkscape:window-height="725"
     id="namedview4"
     showgrid="false"
     inkscape:zoom="0.63"
     inkscape:cx="443.20329"
     inkscape:cy="210.42626"
     inkscape:window-x="0"
     inkscape:window-y="24"
     inkscape:window-maximized="1"
     inkscape:current-layer="svg2" />
  <rect
     style="fill:#cf142b;fill-opacity:1;stroke:none"
     id="rect2892"
     width="800"
     height="400"
     x="0"
     y="-4.65461e-14" />
  <rect
     style="fill:#ffffff;fill-opacity:1;stroke:none"
     id="rect2892-0"
     width="600"
     height="400"
     x="100"
     y="0" />
  <rect
     style="fill:#00247d;fill-opacity:1;stroke:none"
     id="rect2892-0-8"
     width="400"
     height="400"
     x="200"
     y="0" />
  <g
     id="g3917"
     transform="matrix(1.0000011,0,0,1.0000016,5.2652064,0.96842892)">
    <path
       id="path12193"
       d="m 400.21875,45.5625 -4.65625,11.625 -11.96875,-3.59375 6.1875,10.84375 L 379.5,71.5625 391.84375,73.53125 391,86 400.21875,77.5625 409.4375,86 408.625,73.53125 420.96875,71.5625 410.6875,64.4375 416.84375,53.59375 404.875,57.1875 400.21875,45.5625 z m 89,81.5 -4.65625,11.625 -11.96875,-3.59375 6.1875,10.84375 -10.28125,7.125 12.34375,1.96875 L 480,167.5 l 9.21875,-8.4375 9.21875,8.4375 -0.8125,-12.46875 12.34375,-1.96875 -10.28125,-7.125 6.15625,-10.84375 -11.96875,3.59375 -4.65625,-11.625 z m -189,27 -4.65625,11.625 -11.96875,-3.59375 6.1875,10.84375 -10.28125,7.125 12.34375,1.96875 L 291,194.5 l 9.21875,-8.4375 9.21875,8.4375 -0.8125,-12.46875 12.34375,-1.96875 -10.28125,-7.125 6.15625,-10.84375 -11.96875,3.59375 -4.65625,-11.625 z m 99.75,158 -4.65625,11.625 -11.96875,-3.59375 6.1875,10.84375 -10.28125,7.125 12.34375,1.96875 L 390.75,352.5 l 9.21875,-8.4375 9.21875,8.4375 -0.8125,-12.46875 12.34375,-1.96875 -10.28125,-7.125 6.15625,-10.84375 -11.96875,3.59375 -4.65625,-11.625 z"
       style="fill:#cf142b;fill-opacity:1;stroke:#ffffff;stroke-width:3;stroke-miterlimit:4;stroke-dasharray:none" />
    <path
       id="w"
       d="m 440.0625,202.6875 -3.15625,9.6875 -10.15625,0 8.21875,5.9375 -3.125,9.6875 8.21875,-5.96875 8.21875,5.96875 -3.15625,-9.65625 8.21875,-5.96875 -10.15625,0 -3.125,-9.6875 z"
       style="fill:#cf142b;fill-opacity:1;stroke:#ffffff;stroke-width:2;stroke-miterlimit:4;stroke-opacity:1;stroke-dasharray:none" />
  </g>
</svg>
